<svg xmlns="http://www.w3.org/2000/svg" viewBox="0 0 467 270" preserveAspectRatio="xMidYMid meet"><g transform="translate(0.000000,270.000000) scale(0.100000,-0.100000)" fill="#000000" stroke="none"><path d="M0 1350 l0 -1350 519 0 518 0 7 58 c5 43 16 70 45 112 21 30 46 75 55 100 10 25 33 74 53 109 33 59 35 68 29 121 -6 54 -4 64 34 140 22 46 40 89 40 97 0 18 16 16 40 -5 10 -9 50 -33 87 -53 65 -35 68 -38 65 -69 -2 -19 -8 -44 -13 -57 -5 -13 -5 -23 -1 -23 5 0 14 22 21 50 7 27 16 52 20 55 12 7 71 -18 71 -30 0 -5 -23 -30 -52 -55 -91 -79 -95 -84 -102 -118 -9 -39 -1 -41 18 -5 8 16 42 51 75 78 34 28 64 61 68 73 5 20 10 23 32 17 14 -3 46 -9 71 -13 l45 -7 -3 -45 c-2 -25 -14 -69 -27 -97 -24 -53 -24 -53 -72 -54 -45 -2 -170 0 -222 2 -26 2 -41 -15 -41 -48 0 -13 -16 -45 -36 -72 -34 -48 -35 -51 -20 -80 17 -32 36 -49 36 -31 0 6 -6 23 -14 38 -13 25 -12 30 10 57 l24 30 0 -66 c0 -76 11 -92 62 -87 l33 3 3 65 c3 79 9 110 22 110 7 0 10 -50 8 -138 -1 -75 1 -143 5 -150 6 -9 67 -12 245 -12 l237 0 20 37 c11 20 25 38 31 40 5 2 20 -15 33 -37 l22 -40 359 0 c344 0 358 1 353 19 -2 10 2 24 11 32 35 32 46 39 60 39 10 0 13 6 10 15 -5 12 2 15 29 15 20 0 42 3 50 6 10 3 18 -5 25 -25 21 -59 113 -88 184 -58 l37 15 3 -26 3 -27 723 -3 722 -2 0 409 0 409 -76 112 c-42 61 -78 124 -80 138 -7 34 -22 52 -45 52 -28 0 -23 17 9 28 41 14 78 57 93 107 7 25 17 45 21 45 19 0 15 -44 -12 -129 -17 -51 -30 -101 -30 -111 0 -18 62 -80 80 -80 4 0 15 -3 24 -6 15 -6 16 74 16 860 l0 866 -2335 0 -2335 0 0 -1350z m2538 721 c95 -16 122 -25 175 -58 52 -32 67 -49 93 -99 26 -51 32 -74 36 -154 4 -70 11 -106 27 -137 12 -24 17 -43 12 -43 -34 0 -111 -105 -110 -150 0 -18 99 -80 129 -80 23 0 101 -42 120 -65 7 -8 18 -41 25 -73 7 -31 16 -70 20 -87 5 -23 4 -26 -4 -15 -17 24 -13 -4 8 -51 15 -34 22 -88 31 -239 14 -242 25 -377 35 -412 7 -27 6 -28 -34 -28 -31 0 -48 -7 -75 -30 l-35 -31 -23 32 c-22 30 -26 31 -78 27 -30 -3 -67 -2 -82 1 l-28 6 45 65 c25 36 51 72 58 80 28 35 67 97 76 122 6 15 11 105 11 200 1 202 1 199 -10 173 -5 -11 -9 -82 -9 -158 -1 -76 -5 -136 -9 -133 -5 3 -9 22 -10 42 -1 21 -7 53 -13 71 -9 29 -15 34 -33 28 -11 -4 -28 -8 -36 -9 -8 -2 -33 -11 -55 -20 -39 -17 -54 -17 -125 2 l-35 9 43 4 c24 3 46 1 48 -3 8 -12 31 -10 72 7 27 12 33 18 23 24 -17 11 -6 31 17 31 26 1 60 34 68 66 4 16 10 31 13 34 26 21 32 54 20 106 -7 30 -16 54 -20 54 -4 0 -10 14 -14 30 -4 17 -13 30 -21 30 -8 0 -14 4 -14 8 0 4 -13 15 -29 25 -16 9 -39 33 -51 52 -26 42 -32 43 -46 7 -10 -25 -8 -31 13 -50 27 -24 30 -53 6 -74 -10 -8 -54 -27 -98 -42 -44 -15 -85 -32 -90 -36 -14 -12 -50 -12 -225 -1 -148 10 -216 21 -267 43 -32 15 -63 43 -63 58 0 6 -7 10 -15 10 -20 0 -19 -6 10 -44 14 -18 25 -36 25 -40 0 -4 32 -55 72 -113 50 -76 67 -108 57 -112 -7 -2 -25 -17 -39 -33 -13 -15 -31 -28 -38 -28 -12 0 -12 -3 -1 -16 11 -14 13 -14 21 0 5 9 17 16 26 16 14 0 15 -2 3 -9 -12 -8 -13 -12 -1 -26 10 -13 15 -13 21 -3 7 10 9 9 9 -4 0 -10 5 -18 11 -18 6 0 9 -10 7 -23 -3 -30 43 -87 71 -87 12 0 21 5 21 12 0 21 13 -1 15 -27 3 -19 -1 -25 -16 -25 -13 0 -19 -7 -19 -21 0 -20 4 -21 43 -17 35 4 46 1 55 -12 9 -14 6 -22 -14 -40 -18 -18 -21 -26 -12 -37 6 -8 15 -10 20 -5 5 5 27 6 51 1 23 -4 45 -8 50 -9 4 0 7 -4 7 -10 0 -5 -3 -9 -7 -7 -5 1 -10 -2 -13 -6 -3 -5 10 -15 27 -22 28 -12 35 -12 48 1 8 9 15 11 15 5 0 -5 -6 -13 -12 -18 -13 -7 11 -15 97 -32 22 -4 61 -18 88 -31 44 -23 47 -26 47 -64 l0 -41 -20 32 c-25 42 -48 53 -107 53 -57 -1 -87 -16 -114 -56 l-19 -29 0 83 0 82 -39 0 c-22 0 -45 2 -53 5 -10 4 -12 -5 -10 -38 l4 -44 -42 -1 c-53 -2 -74 -14 -92 -52 l-15 -32 -11 30 c-15 42 -39 52 -124 50 -90 -2 -108 -10 -108 -49 l0 -30 -31 36 c-17 19 -43 38 -57 42 -36 9 -71 51 -78 98 -5 25 -18 49 -37 67 l-31 27 27 10 c15 6 27 18 27 26 0 9 9 34 21 56 18 37 19 45 8 96 -18 78 -119 220 -184 259 -16 10 -36 25 -43 33 -11 14 -11 13 -2 -6 9 -19 8 -23 -6 -23 -10 0 -26 7 -36 17 -10 9 -18 11 -18 5 0 -6 3 -12 8 -15 4 -2 1 -2 -6 0 -22 5 -50 -21 -75 -67 -16 -30 -33 -47 -60 -57 -21 -9 -41 -12 -45 -8 -4 4 -2 9 4 12 6 2 9 16 6 32 -3 23 2 33 22 46 25 17 28 17 45 1 16 -15 19 -15 24 -2 4 9 -1 20 -11 25 -10 5 -18 19 -19 30 -1 18 2 20 23 15 28 -7 31 2 7 28 -15 17 -15 18 13 19 l29 1 -30 9 c-19 5 -31 5 -33 -1 -4 -10 -32 -15 -32 -6 0 2 -3 11 -6 20 -7 18 6 24 146 67 69 21 102 37 120 57 14 16 51 47 82 70 66 48 110 55 139 21 16 -18 20 -19 37 -7 36 25 108 94 146 141 37 46 38 48 28 90 -48 181 -48 307 -3 390 22 40 37 53 91 80 39 19 95 37 140 43 41 7 75 12 75 13 0 0 51 -8 113 -18z m1903 -408 c31 -42 79 -168 68 -176 -2 -2 -29 48 -59 110 -31 62 -53 113 -50 113 3 0 22 -21 41 -47z m-1600 -416 c76 -40 100 -125 59 -210 -35 -74 -80 -95 -129 -61 -19 13 -28 14 -48 5 -31 -14 -175 -15 -218 -2 -22 7 -5 9 68 7 82 -1 102 1 125 17 l27 19 -57 -6 c-37 -4 -59 -2 -64 5 -4 7 -22 9 -47 6 -25 -4 -36 -2 -30 4 6 6 30 12 54 14 25 2 79 20 121 40 42 19 81 35 85 35 14 0 77 69 70 76 -4 4 -13 2 -20 -4 -8 -7 -18 -8 -22 -4 -5 4 -6 2 -3 -3 4 -6 -17 -21 -45 -34 -29 -13 -60 -28 -69 -32 -70 -35 -151 -49 -164 -27 -5 8 2 9 24 5 18 -4 32 -3 32 1 0 4 15 13 33 20 17 7 47 21 66 30 19 9 37 18 40 18 26 5 71 31 71 40 0 7 6 14 13 17 8 3 7 10 -7 26 -24 27 -19 26 35 -2z m-398 -144 c-7 -2 -19 -2 -25 0 -7 3 -2 5 12 5 14 0 19 -2 13 -5z m45 -20 c-10 -2 -26 -2 -35 0 -10 3 -2 5 17 5 19 0 27 -2 18 -5z m105 -70 c-7 -2 -21 -2 -30 0 -10 3 -4 5 12 5 17 0 24 -2 18 -5z m-1218 -71 c-8 -9 -35 20 -28 31 4 6 11 3 19 -8 8 -10 12 -21 9 -23z m825 -47 c14 -19 14 -19 -2 -6 -10 7 -18 18 -18 24 0 6 1 8 3 6 1 -2 9 -13 17 -24z m-429 -32 c33 -45 62 -101 41 -78 -38 40 -92 108 -92 116 0 20 17 7 51 -38z m1010 17 c-28 -24 -60 -28 -41 -6 6 8 21 17 33 19 12 2 24 5 27 5 3 1 -6 -8 -19 -18z m-596 -28 c-3 -3 -11 0 -18 7 -9 10 -8 11 6 5 10 -3 15 -9 12 -12z m-435 -53 c0 -13 52 -58 68 -59 17 0 15 -51 -3 -74 -8 -11 -15 -30 -15 -43 0 -19 -5 -23 -30 -23 -23 0 -30 4 -30 20 0 10 -8 24 -17 29 -16 10 -17 10 -1 11 9 0 28 -4 42 -10 39 -14 34 16 -10 61 -32 32 -35 40 -29 73 4 20 11 33 16 30 5 -3 9 -10 9 -15z m544 -18 c-6 -6 -34 20 -34 32 0 6 8 2 19 -9 10 -10 17 -21 15 -23z m21 -31 c3 -5 1 -10 -4 -10 -6 0 -11 5 -11 10 0 6 2 10 4 10 3 0 8 -4 11 -10z m590 -72 c-3 -9 -17 -20 -31 -27 -14 -6 -23 -15 -20 -20 3 -4 -2 -17 -10 -27 -15 -18 -15 -18 -10 0 5 13 2 17 -9 12 -9 -3 -19 3 -25 15 -6 10 -7 18 -3 17 15 -4 103 35 103 45 0 6 2 8 5 5 3 -3 3 -12 0 -20z m15 -63 c-28 -46 -34 -45 -14 3 9 20 19 44 22 52 5 12 7 12 10 -3 2 -9 -6 -33 -18 -52z m-470 -54 c0 -5 -7 -12 -16 -15 -24 -9 -28 -7 -14 9 14 17 30 20 30 6z m75 -21 c3 -6 -1 -7 -9 -4 -18 7 -21 14 -7 14 6 0 13 -4 16 -10z m-57 -252 l3 -148 -25 0 c-15 0 -26 7 -28 17 -3 15 -4 15 -20 -1 -12 -12 -30 -16 -55 -14 -30 2 -42 10 -60 37 -51 76 -10 181 71 181 14 0 28 -4 31 -10 14 -22 25 -7 25 33 0 50 6 59 35 55 19 -3 20 -11 23 -150z m-902 58 c17 -12 22 -12 39 0 22 16 63 18 85 4 10 -6 17 -35 21 -97 7 -103 5 -113 -27 -113 -23 0 -24 3 -24 74 0 86 -6 106 -29 106 -32 0 -41 -22 -41 -102 l0 -78 -30 0 -30 0 0 85 c0 70 -3 87 -16 92 -36 14 -49 -10 -52 -96 l-3 -82 -27 3 -27 3 -3 104 -3 104 41 -6 c22 -3 43 -1 46 4 8 14 57 11 80 -5z m379 -17 c29 -26 35 -38 35 -71 0 -74 -40 -118 -106 -118 -31 0 -51 7 -73 26 -28 23 -31 32 -31 81 0 47 4 59 29 84 42 41 97 41 146 -2z m248 14 c11 -13 16 -44 18 -108 l3 -90 -26 -3 -27 -3 -3 82 c-2 65 -7 84 -20 93 -13 8 -23 8 -35 0 -14 -9 -19 -29 -23 -90 -5 -77 -6 -79 -32 -82 l-28 -3 0 105 c0 104 0 106 23 106 13 0 28 -5 35 -12 8 -8 12 -9 12 -1 0 25 81 29 103 6z m502 -14 c29 -26 35 -38 35 -71 0 -73 -40 -117 -106 -118 -51 0 -90 28 -103 75 -31 114 86 191 174 114z m245 13 c20 -16 23 -28 24 -108 l1 -89 -27 -3 -27 -3 -3 82 c-2 65 -7 84 -20 93 -13 8 -23 8 -35 0 -14 -9 -19 -28 -21 -93 l-3 -81 -29 0 -30 0 0 105 0 105 25 0 c14 0 25 -5 25 -11 0 -7 9 -5 23 4 30 21 70 21 97 -1z m199 9 c9 -5 23 -6 30 -2 7 5 22 6 33 3 18 -4 19 -12 16 -128 -3 -113 -5 -125 -26 -146 -44 -44 -172 -22 -172 30 0 11 8 13 33 7 17 -3 48 -7 67 -8 31 -2 35 1 38 26 4 31 3 31 -34 17 -58 -22 -114 33 -114 113 0 67 74 117 129 88z m291 -8 c14 -9 30 -24 37 -33 28 -35 5 -138 -35 -159 -12 -6 -41 -11 -66 -11 -37 0 -51 5 -69 26 -65 75 -22 194 72 194 20 0 48 -8 61 -17z m-1809 -86 c-8 -8 -11 -5 -11 9 0 27 14 41 18 19 2 -9 -1 -22 -7 -28z m512 11 c5 -35 -4 -54 -22 -44 -12 8 -15 59 -4 69 13 14 21 6 26 -25z m747 18 c0 -3 -4 -8 -10 -11 -5 -3 -10 -1 -10 4 0 6 5 11 10 11 6 0 10 -2 10 -4z m-371 -123 c1 -7 -3 -13 -9 -13 -5 0 -10 15 -9 33 0 27 2 29 9 12 5 -11 9 -26 9 -32z m511 -3 c8 -16 8 -20 -3 -20 -8 0 -17 9 -20 20 -3 11 -1 20 4 20 4 0 13 -9 19 -20z"/><path d="M2180 1585 c0 -9 6 -12 15 -9 8 4 12 10 9 15 -8 14 -24 10 -24 -6z"/><path d="M2215 1550 c3 -5 8 -10 11 -10 2 0 4 5 4 10 0 6 -5 10 -11 10 -5 0 -7 -4 -4 -10z"/><path d="M2422 1483 c3 -36 5 -38 38 -40 34 -1 34 -1 5 5 -26 6 -30 12 -30 40 0 17 -3 32 -8 32 -5 0 -7 -17 -5 -37z"/><path d="M2479 1489 c13 -14 28 -19 47 -17 l29 4 -37 17 c-50 23 -63 21 -39 -4z"/><path d="M2576 1455 c4 -8 11 -15 16 -15 6 0 5 6 -2 15 -7 8 -14 15 -16 15 -2 0 -1 -7 2 -15z"/><path d="M2528 1433 c7 -3 16 -2 19 1 4 3 -2 6 -13 5 -11 0 -14 -3 -6 -6z"/><path d="M2455 1410 c46 -12 137 -12 130 0 -3 6 -41 9 -83 9 -57 -1 -69 -3 -47 -9z"/><path d="M2610 1410 c0 -5 11 -10 25 -10 14 0 25 5 25 10 0 6 -11 10 -25 10 -14 0 -25 -4 -25 -10z"/><path d="M2060 1220 c0 -12 27 -12 55 0 16 7 13 9 -17 9 -21 1 -38 -3 -38 -9z"/><path d="M1890 1085 c0 -34 126 -185 154 -185 9 0 16 4 16 9 0 12 -63 94 -107 141 -18 19 -33 38 -33 43 0 4 -7 7 -15 7 -8 0 -15 -7 -15 -15z"/><path d="M1488 1028 c5 -5 16 -8 23 -6 8 3 3 7 -10 11 -17 4 -21 3 -13 -5z"/><path d="M1400 952 c0 -11 24 -22 48 -22 21 0 5 15 -25 25 -13 3 -23 2 -23 -3z"/><path d="M2153 775 c-3 -9 -3 -18 -1 -21 3 -3 8 4 11 16 6 23 -1 27 -10 5z"/><path d="M2209 606 c6 -8 11 -18 10 -22 -4 -26 3 -43 22 -49 30 -10 36 2 11 25 -12 12 -22 30 -22 40 0 12 -7 20 -16 20 -13 0 -14 -3 -5 -14z"/><path d="M2383 513 c-18 -6 -16 -23 1 -23 17 0 30 16 19 23 -5 2 -14 2 -20 0z"/><path d="M2332 308 c-15 -15 -16 -82 -2 -109 12 -21 50 -25 68 -7 7 7 12 33 12 58 0 50 -13 70 -45 70 -12 0 -26 -5 -33 -12z m54 -33 c8 -33 -3 -75 -20 -75 -26 0 -36 66 -14 88 18 18 27 15 34 -13z"/><path d="M1837 302 c-35 -39 -10 -122 37 -122 33 0 49 23 49 70 0 22 -6 46 -13 55 -17 20 -53 19 -73 -3z"/><path d="M2584 295 c-11 -18 -15 -37 -11 -62 7 -39 20 -53 52 -53 33 0 45 20 45 72 0 37 -4 50 -19 58 -31 16 -49 12 -67 -15z m54 -7 c20 -20 12 -88 -10 -88 -15 0 -38 27 -38 44 0 17 21 56 30 56 3 0 11 -5 18 -12z"/><path d="M3088 309 c-12 -7 -18 -22 -18 -49 0 -56 8 -70 41 -70 33 0 49 23 49 72 0 52 -30 72 -72 47z"/><path d="M3336 298 c-32 -45 -8 -118 38 -118 33 0 46 19 46 68 0 68 -51 98 -84 50z"/><path d="M1408 463 c7 -3 16 -2 19 1 4 3 -2 6 -13 5 -11 0 -14 -3 -6 -6z"/><path d="M1171 105 c-39 -52 -71 -97 -71 -100 0 -3 9 -5 20 -5 11 0 20 4 20 10 0 5 25 46 55 90 49 73 63 100 51 100 -3 0 -36 -43 -75 -95z"/></g></svg>
